<?xml version="1.0" encoding="UTF-8" standalone="no"?>
<svg
   xmlns:dc="http://purl.org/dc/elements/1.1/"
   xmlns:cc="http://creativecommons.org/ns#"
   xmlns:rdf="http://www.w3.org/1999/02/22-rdf-syntax-ns#"
   xmlns:svg="http://www.w3.org/2000/svg"
   xmlns="http://www.w3.org/2000/svg"
   xmlns:xlink="http://www.w3.org/1999/xlink"
   xmlns:sodipodi="http://sodipodi.sourceforge.net/DTD/sodipodi-0.dtd"
   xmlns:inkscape="http://www.inkscape.org/namespaces/inkscape"
   id="Layer_1"
   width="4096"
   height="4096"
   viewBox="0 0 10294.711 10322.261"
   version="1.1"
   sodipodi:docname="bbc-logo.svg"
   inkscape:export-filename="G:\Users\suitedoalex\sites\bbc-logo-0.png"
   inkscape:export-xdpi="96"
   inkscape:export-ydpi="96"
   inkscape:version="0.92.2 (5c3e80d, 2017-08-06)">
  <metadata
     id="metadata19">
    <rdf:RDF>
      <cc:Work
         rdf:about="">
        <dc:format>image/svg+xml</dc:format>
        <dc:type
           rdf:resource="http://purl.org/dc/dcmitype/StillImage" />
        <dc:title></dc:title>
      </cc:Work>
    </rdf:RDF>
  </metadata>
  <sodipodi:namedview
     pagecolor="#ffffff"
     bordercolor="#666666"
     borderopacity="1"
     objecttolerance="10"
     gridtolerance="10"
     guidetolerance="10"
     inkscape:pageopacity="0"
     inkscape:pageshadow="2"
     inkscape:window-width="1600"
     inkscape:window-height="837"
     id="namedview17"
     showgrid="false"
     inkscape:zoom="0.16678039"
     inkscape:cx="2156.0716"
     inkscape:cy="1862.4007"
     inkscape:window-x="-8"
     inkscape:window-y="-8"
     inkscape:window-maximized="1"
     inkscape:current-layer="Layer_1" />
  <style
     id="style2">.st0{clip-path:url(#SVGID_2_);fill:#1D1D1B;}</style>
  <defs
     id="defs5">
    <path
       id="SVGID_1_"
       d="M 0,0 H 211.122 V 60.482 H 0 Z"
       inkscape:connector-curvature="0" />
    <clipPath
       id="SVGID_2_-4">
      <use
         xlink:href="#SVGID_1_"
         overflow="visible"
         id="use7-4"
         style="overflow:visible"
         x="0"
         y="0"
         width="100%"
         height="100%" />
    </clipPath>
    <clipPath
       id="clipPath860">
      <use
         xlink:href="#SVGID_1_"
         overflow="visible"
         id="use858"
         style="overflow:visible"
         x="0"
         y="0"
         width="100%"
         height="100%" />
    </clipPath>
    <clipPath
       id="clipPath864">
      <use
         xlink:href="#SVGID_1_"
         overflow="visible"
         id="use862"
         style="overflow:visible"
         x="0"
         y="0"
         width="100%"
         height="100%" />
    </clipPath>
  </defs>
  <clipPath
     id="SVGID_2_">
    <use
       xlink:href="#SVGID_1_"
       overflow="visible"
       id="use7"
       style="overflow:visible"
       x="0"
       y="0"
       width="100%"
       height="100%" />
  </clipPath>
  <rect
     style="fill:#ffffff;fill-rule:evenodd;stroke-width:2.52008319"
     id="rect826"
     width="2126.219"
     height="2190.3259"
     x="1001.2542"
     y="4071.8188"
     inkscape:export-filename="G:\Users\suitedoalex\sites\bbc-logo-5.png"
     inkscape:export-xdpi="5.4094892"
     inkscape:export-ydpi="5.4094892" />
  <rect
     style="fill:#ffffff;fill-rule:evenodd;stroke-width:2.52008319"
     id="rect828"
     width="2085.2061"
     height="2206.0876"
     x="4111.3066"
     y="4081.7529"
     inkscape:export-filename="G:\Users\suitedoalex\sites\bbc-logo-5.png"
     inkscape:export-xdpi="5.4094892"
     inkscape:export-ydpi="5.4094892" />
  <rect
     style="fill:#ffffff;fill-rule:evenodd;stroke-width:2.52008319"
     id="rect830"
     width="2281.6387"
     height="2190.9773"
     x="7103.124"
     y="4111.9731"
     inkscape:export-filename="G:\Users\suitedoalex\sites\bbc-logo-5.png"
     inkscape:export-xdpi="5.4094892"
     inkscape:export-ydpi="5.4094892" />
  <path
     class="st0"
     d="m 187.413,8.567 c -0.28,-0.048 -0.568,-0.095 -0.86,-0.14 l -0.346,-0.05 c -0.487,-0.067 -0.984,-0.123 -1.484,-0.17 -0.34,-0.033 -0.68,-0.056 -1.018,-0.076 -0.603,-0.037 -1.2,-0.052 -1.774,-0.052 -0.262,0 -0.412,0.005 -0.668,0.008 -0.483,0.008 -0.952,0.03 -1.415,0.06 -0.264,0.017 -0.523,0.04 -0.78,0.062 -0.38,0.034 -0.756,0.075 -1.125,0.122 l -0.31,0.042 -0.342,0.05 -0.423,0.067 c -0.186,0.03 -0.367,0.062 -0.547,0.095 -0.25,0.047 -0.5,0.097 -0.746,0.148 -1.514,0.32 -2.914,0.746 -4.208,1.25 -0.666,0.26 -1.31,0.54 -1.917,0.84 -0.507,0.247 -0.996,0.504 -1.464,0.774 -0.455,0.263 -0.893,0.528 -1.312,0.81 -0.242,0.16 -0.48,0.323 -0.71,0.49 -0.198,0.143 -0.395,0.286 -0.586,0.434 -0.403,0.313 -0.795,0.63 -1.16,0.955 -0.342,0.303 -0.675,0.61 -0.984,0.918 -0.267,0.267 -0.534,0.537 -0.787,0.82 -0.255,0.287 -0.51,0.576 -0.754,0.877 -0.265,0.328 -0.526,0.663 -0.776,1.01 -0.184,0.257 -0.364,0.518 -0.538,0.784 -0.12,0.18 -0.234,0.362 -0.348,0.546 -0.666,1.088 -1.25,2.254 -1.727,3.497 -0.598,1.55 -1.03,3.216 -1.267,4.99 -0.074,0.557 -0.132,1.124 -0.165,1.704 -0.025,0.445 -0.043,0.896 -0.043,1.353 0,0.342 0.003,0.68 0.025,1.014 0.023,0.35 0.05,0.694 0.09,1.036 l 0.025,0.24 c 0.052,0.406 0.114,0.805 0.19,1.2 0.03,0.152 0.062,0.307 0.095,0.46 0.07,0.328 0.147,0.652 0.233,0.97 0.112,0.413 0.23,0.818 0.364,1.216 0.165,0.487 0.34,0.964 0.534,1.426 0.308,0.735 0.644,1.44 1.008,2.103 0.214,0.39 0.433,0.77 0.66,1.133 0.183,0.292 0.37,0.57 0.56,0.846 0.248,0.36 0.507,0.707 0.762,1.037 0.27,0.35 0.55,0.677 0.82,0.99 0.34,0.39 0.683,0.748 1.013,1.077 l 0.18,0.175 c 0.274,0.264 0.57,0.55 0.913,0.84 0.233,0.198 0.474,0.406 0.737,0.612 0.245,0.192 0.497,0.39 0.768,0.583 0.322,0.23 0.66,0.466 1.02,0.698 0.38,0.244 0.78,0.49 1.207,0.728 0.843,0.472 1.773,0.925 2.797,1.337 0.382,0.152 0.778,0.3 1.188,0.44 0.405,0.138 0.82,0.267 1.252,0.392 0.734,0.208 1.507,0.395 2.318,0.553 0.652,0.127 1.332,0.232 2.034,0.317 0.698,0.084 1.42,0.15 2.17,0.187 0.363,0.018 0.732,0.032 1.107,0.038 0.172,0.003 0.347,0.007 0.52,0.007 1.343,0 2.584,-0.05 3.733,-0.146 l 0.226,-0.02 c 0.46,-0.042 0.9,-0.09 1.33,-0.142 0.656,-0.082 1.285,-0.18 1.88,-0.285 0.377,-0.07 0.74,-0.143 1.095,-0.218 0.55,-0.118 1.072,-0.246 1.572,-0.378 0.367,-0.097 0.724,-0.2 1.065,-0.303 0.41,-0.123 0.807,-0.254 1.18,-0.382 l 0.364,-0.127 c 0.18,-0.064 0.427,-0.152 0.718,-0.266 0.384,-0.15 0.848,-0.333 1.375,-0.558 0.313,-0.135 0.655,-0.288 1.004,-0.45 0.31,-0.14 0.64,-0.3 0.968,-0.46 0.14,-0.068 0.28,-0.132 0.42,-0.203 v -8.19 c -0.094,0.06 -0.196,0.12 -0.293,0.178 l -0.562,0.34 c -0.56,0.34 -1.1,0.658 -1.643,0.954 -0.595,0.322 -1.175,0.62 -1.75,0.892 -1.014,0.477 -1.983,0.88 -2.924,1.217 -1.783,0.64 -3.424,1.05 -4.87,1.3 -0.17,0.03 -0.34,0.058 -0.506,0.084 -0.4,0.063 -0.78,0.11 -1.148,0.15 -0.572,0.063 -1.1,0.095 -1.58,0.118 -0.31,0.013 -0.6,0.02 -0.87,0.02 -0.58,0 -1.178,-0.015 -1.787,-0.058 -0.713,-0.05 -1.44,-0.13 -2.172,-0.254 -1.185,-0.198 -2.373,-0.5 -3.537,-0.92 -0.17,-0.062 -0.343,-0.132 -0.514,-0.2 -0.11,-0.042 -0.225,-0.09 -0.333,-0.136 -0.192,-0.082 -0.38,-0.163 -0.57,-0.252 -0.398,-0.19 -0.797,-0.393 -1.185,-0.612 -0.19,-0.11 -0.378,-0.224 -0.578,-0.347 -0.194,-0.123 -0.39,-0.25 -0.578,-0.38 -0.24,-0.168 -0.476,-0.338 -0.708,-0.52 -0.22,-0.175 -0.45,-0.362 -0.64,-0.53 l -0.272,-0.244 -0.135,-0.124 -0.08,-0.076 -0.1,-0.095 c -0.367,-0.366 -0.705,-0.735 -1.012,-1.104 -0.172,-0.208 -0.334,-0.416 -0.488,-0.626 -0.15,-0.2 -0.287,-0.406 -0.42,-0.606 -0.127,-0.19 -0.246,-0.386 -0.358,-0.577 -0.17,-0.29 -0.324,-0.58 -0.465,-0.865 -0.122,-0.245 -0.232,-0.49 -0.336,-0.732 -0.176,-0.41 -0.327,-0.828 -0.453,-1.222 -0.1,-0.308 -0.183,-0.615 -0.256,-0.91 -0.214,-0.854 -0.326,-1.637 -0.388,-2.3 -0.023,-0.258 -0.04,-0.495 -0.05,-0.714 -0.015,-0.328 -0.02,-0.612 -0.02,-0.84 0,-0.15 0.002,-0.322 0.01,-0.52 0.018,-0.468 0.055,-1.06 0.153,-1.736 0.06,-0.41 0.144,-0.85 0.252,-1.31 0.073,-0.307 0.16,-0.616 0.258,-0.938 0.09,-0.292 0.195,-0.585 0.31,-0.886 0.075,-0.203 0.162,-0.405 0.25,-0.61 0.12,-0.277 0.254,-0.553 0.398,-0.835 0.108,-0.21 0.228,-0.42 0.35,-0.633 0.27,-0.467 0.575,-0.93 0.92,-1.39 0.125,-0.164 0.253,-0.33 0.388,-0.493 0.173,-0.21 0.357,-0.425 0.548,-0.63 0.097,-0.102 0.193,-0.21 0.294,-0.312 1.5,-1.5 3.19,-2.624 4.938,-3.42 0.27,-0.123 0.548,-0.234 0.822,-0.344 0.28,-0.11 0.553,-0.208 0.836,-0.304 0.302,-0.1 0.61,-0.194 0.913,-0.28 0.288,-0.08 0.58,-0.15 0.865,-0.217 0.288,-0.067 0.58,-0.123 0.865,-0.176 0.317,-0.06 0.633,-0.106 0.947,-0.15 0.316,-0.04 0.63,-0.074 0.94,-0.1 0.598,-0.052 1.184,-0.078 1.755,-0.078 0.193,0 0.38,-0.002 0.57,0.003 0.423,0.01 0.838,0.024 1.242,0.05 0.282,0.02 0.556,0.037 0.826,0.062 0.517,0.048 1.015,0.112 1.488,0.184 0.42,0.063 0.828,0.136 1.208,0.21 0.59,0.117 1.126,0.248 1.607,0.374 0.315,0.082 0.603,0.168 0.867,0.246 0.396,0.118 0.735,0.224 0.998,0.315 0.455,0.157 0.706,0.25 0.706,0.25 0.403,0.143 0.795,0.302 1.184,0.457 0.52,0.208 1.016,0.435 1.494,0.65 0.397,0.178 0.772,0.364 1.127,0.537 0.292,0.142 0.563,0.286 0.82,0.418 0.448,0.23 0.826,0.442 1.138,0.61 l 0.835,0.455 v -8.04 c 0,0 -0.503,-0.208 -1.37,-0.534 -0.382,-0.146 -0.834,-0.317 -1.348,-0.5 -0.287,-0.1 -0.586,-0.21 -0.907,-0.317 -0.254,-0.086 -0.516,-0.18 -0.79,-0.267 -0.306,-0.097 -0.623,-0.203 -0.952,-0.302 -0.235,-0.07 -0.48,-0.145 -0.724,-0.215 l -0.22,-0.062 c -0.238,-0.068 -0.48,-0.136 -0.728,-0.202 -0.29,-0.077 -0.587,-0.153 -0.888,-0.227 l -0.58,-0.14 c -0.318,-0.072 -0.64,-0.143 -0.966,-0.21 -0.33,-0.073 -0.668,-0.134 -1.007,-0.196 z M 147.208,0.21 h 63.818 V 60.268 H 147.208 Z M 98.16,33.33 v 11.8 h 7.663 c 0,0 0.153,-0.004 0.404,-0.014 0.258,-0.01 0.623,-0.023 1.065,-0.06 0.836,-0.078 1.928,-0.23 2.99,-0.59 0.963,-0.324 1.9,-0.81 2.615,-1.526 0.275,-0.275 0.503,-0.562 0.687,-0.852 0.6,-0.946 0.753,-1.91 0.786,-2.455 0.018,-0.236 0.017,-0.375 0.017,-0.375 0,0 0.004,-0.106 0,-0.29 -0.01,-0.228 -0.036,-0.67 -0.158,-1.142 -0.144,-0.56 -0.415,-1.21 -0.896,-1.803 -0.09,-0.113 -0.19,-0.226 -0.297,-0.333 -0.21,-0.21 -0.438,-0.414 -0.688,-0.598 -0.42,-0.308 -0.9,-0.572 -1.42,-0.798 -0.688,-0.297 -1.46,-0.52 -2.306,-0.68 -0.433,-0.08 -0.893,-0.147 -1.362,-0.19 -0.29,-0.03 -0.58,-0.05 -0.883,-0.067 -0.262,-0.017 -0.538,-0.028 -0.81,-0.028 -2.72,0 -7.41,-0.003 -7.41,-0.003 z m 0,-17.945 v 11.19 h 3.71 c 0,0 0.248,0 0.575,-0.01 0.256,-0.008 0.562,-0.026 0.835,-0.04 0.763,-0.057 1.82,-0.163 2.876,-0.458 0.206,-0.058 0.413,-0.122 0.616,-0.194 0.828,-0.295 1.622,-0.726 2.24,-1.333 0.49,-0.482 0.815,-1.02 1.03,-1.542 0.262,-0.64 0.354,-1.253 0.392,-1.687 0.034,-0.387 0.032,-0.633 0.032,-0.633 0,0 0.008,-0.185 -0.008,-0.475 -0.026,-0.488 -0.127,-1.28 -0.51,-2.043 -0.187,-0.366 -0.44,-0.718 -0.786,-1.06 -0.417,-0.41 -0.923,-0.727 -1.468,-0.968 -1.045,-0.46 -2.24,-0.644 -3.247,-0.71 -0.438,-0.03 -0.837,-0.037 -1.177,-0.037 z"
     clip-path="url(#SVGID_2_)"
     id="path10"
     inkscape:connector-curvature="0"
     style="fill:#1d1d1b"
     transform="matrix(42.413679,0,0,42.413679,645.58939,3878.5833)"
     inkscape:export-filename="G:\Users\suitedoalex\sites\bbc-logo-5.png"
     inkscape:export-xdpi="5.4094892"
     inkscape:export-ydpi="5.4094892" />
  <path
     class="st0"
     d="m 90.413,8.632 v 43.253 h 16.283 c 0,0 7.94,0.22 12.324,-4.166 3.568,-3.568 3.312,-7.697 3.312,-7.697 0,0 0.257,-4.31 -3.047,-7.616 -2.815,-2.814 -6.41,-3.564 -6.41,-3.564 0,0 1.624,-0.762 2.872,-2.01 0.584,-0.585 2.662,-2.462 2.662,-7.018 0,-4.59 -3.057,-7.23 -3.057,-7.23 0,0 -3.345,-3.954 -10.9,-3.954 H 90.412 V 8.632 Z M 73.673,0.21 H 137.49 V 60.268 H 73.672 V 0.21 Z M 24.625,33.33 v 11.8 h 7.663 c 0,0 0.153,-0.004 0.404,-0.014 0.26,-0.01 0.623,-0.023 1.065,-0.06 0.835,-0.078 1.928,-0.23 2.99,-0.59 0.963,-0.324 1.9,-0.81 2.614,-1.526 0.277,-0.275 0.505,-0.562 0.687,-0.852 0.602,-0.946 0.753,-1.91 0.787,-2.455 0.018,-0.236 0.016,-0.375 0.016,-0.375 0,0 0.004,-0.106 0,-0.29 -0.008,-0.228 -0.036,-0.67 -0.157,-1.142 -0.144,-0.56 -0.414,-1.21 -0.895,-1.803 -0.09,-0.113 -0.19,-0.226 -0.297,-0.333 -0.21,-0.21 -0.437,-0.414 -0.687,-0.598 -0.42,-0.308 -0.9,-0.572 -1.42,-0.798 -0.688,-0.297 -1.458,-0.52 -2.306,-0.68 -0.433,-0.08 -0.892,-0.147 -1.362,-0.19 -0.29,-0.03 -0.58,-0.05 -0.883,-0.067 -0.262,-0.017 -0.538,-0.028 -0.81,-0.028 -2.718,0 -7.407,-0.003 -7.407,-0.003 z m 0,-17.945 v 11.19 h 3.71 c 0,0 0.248,0 0.575,-0.01 0.257,-0.008 0.562,-0.026 0.834,-0.04 0.763,-0.057 1.82,-0.163 2.876,-0.458 0.206,-0.058 0.413,-0.122 0.616,-0.194 0.828,-0.295 1.622,-0.726 2.24,-1.333 0.49,-0.482 0.814,-1.02 1.028,-1.542 0.263,-0.64 0.355,-1.253 0.393,-1.687 0.034,-0.387 0.032,-0.633 0.032,-0.633 0,0 0.007,-0.185 -0.008,-0.475 -0.026,-0.488 -0.128,-1.28 -0.51,-2.043 -0.187,-0.366 -0.44,-0.718 -0.786,-1.06 -0.417,-0.41 -0.923,-0.727 -1.468,-0.968 -1.044,-0.46 -2.24,-0.644 -3.247,-0.71 -0.437,-0.03 -0.836,-0.037 -1.176,-0.037 h -5.11 z"
     clip-path="url(#SVGID_2_)"
     id="path12"
     inkscape:connector-curvature="0"
     style="fill:#1d1d1b"
     transform="matrix(42.413679,0,0,42.413679,645.58939,3878.5833)"
     inkscape:export-filename="G:\Users\suitedoalex\sites\bbc-logo-5.png"
     inkscape:export-xdpi="5.4094892"
     inkscape:export-ydpi="5.4094892" />
  <path
     class="st0"
     d="M 16.878,8.632 V 51.885 H 33.16 c 0,0 7.94,0.22 12.324,-4.166 3.57,-3.568 3.312,-7.697 3.312,-7.697 0,0 0.258,-4.31 -3.046,-7.616 -2.815,-2.814 -6.41,-3.564 -6.41,-3.564 0,0 1.625,-0.762 2.872,-2.01 0.583,-0.585 2.662,-2.462 2.662,-7.018 0,-4.59 -3.055,-7.23 -3.055,-7.23 0,0 -3.346,-3.954 -10.902,-3.954 H 16.877 V 8.632 Z M 0.138,0.21 H 63.954 V 60.268 H 0.137 V 0.21 Z"
     clip-path="url(#SVGID_2_)"
     id="path14"
     inkscape:connector-curvature="0"
     style="fill:#1d1d1b"
     transform="matrix(42.413679,0,0,42.413679,645.58939,3878.5833)"
     inkscape:export-filename="G:\Users\suitedoalex\sites\bbc-logo-5.png"
     inkscape:export-xdpi="5.4094892"
     inkscape:export-ydpi="5.4094892" />
</svg>
